<?xml version="1.0" encoding="UTF-8" standalone="no"?>
<svg
   data-name="Layer 1"
   width="721.11239"
   height="582.53467"
   viewBox="0 0 721.11239 582.53467"
   version="1.1"
   id="svg1050"
   sodipodi:docname="GMB-Local-SEO-JWS-Aruba.svg"
   inkscape:version="1.1.1 (3bf5ae0d25, 2021-09-20)"
   xmlns:inkscape="http://www.inkscape.org/namespaces/inkscape"
   xmlns:sodipodi="http://sodipodi.sourceforge.net/DTD/sodipodi-0.dtd"
   xmlns="http://www.w3.org/2000/svg"
   xmlns:svg="http://www.w3.org/2000/svg">
  <defs
     id="defs1054">
    <linearGradient
       id="a"
       x1="46.869633"
       x2="854.4834"
       y1="666.05511"
       y2="666.05511"
       gradientTransform="scale(1.1514919,0.86843861)"
       gradientUnits="userSpaceOnUse">
      <stop
         offset=".03"
         stop-color="#4079d8"
         id="stop1225" />
      <stop
         offset="1"
         stop-color="#4989f5"
         id="stop1227" />
    </linearGradient>
  </defs>
  <sodipodi:namedview
     id="namedview1052"
     pagecolor="#ffffff"
     bordercolor="#666666"
     borderopacity="1.0"
     inkscape:pageshadow="2"
     inkscape:pageopacity="0.0"
     inkscape:pagecheckerboard="0"
     showgrid="false"
     inkscape:zoom="0.98564212"
     inkscape:cx="570.69395"
     inkscape:cy="201.39156"
     inkscape:window-width="1920"
     inkscape:window-height="1001"
     inkscape:window-x="-9"
     inkscape:window-y="-9"
     inkscape:window-maximized="1"
     inkscape:current-layer="svg1050" />
  <path
     d="M719.63469,741.26733l-.153-.01452L480.3662,719.04034,262.93028,739.239a21.49791,21.49791,0,0,1-23.39415-19.41735q-.09207-.99134-.09215-1.988V200.70651a21.40162,21.40162,0,0,1,19.50937-21.40539l221.41288-20.56845.153.01452,239.11545,22.21245L937.06956,160.761a21.49792,21.49792,0,0,1,23.39429,19.41721q.0921.99142.09216,1.98819V699.29309a21.40186,21.40186,0,0,1-19.50927,21.40576Z"
     transform="translate(-239.4438 -158.73267)"
     fill="#3f3d56"
     id="path1000" />
  <path
     d="M572.76414,350.0441c-46.28643-33.7103-94.98727-65.67591-144.73815-95.00394l-2.49707-1.47175v99.46885H576.87376Zm-143.92791-.31421V259.36456c47.32852,27.9968,93.67273,58.37488,137.86749,90.36536Zm378.18,204.73386q-30.02664-31.21739-61.60767-61.01252Q736.702,485.22838,727.888,477.1377q-53.79025-49.412-111.11915-93.98694l-.44653-.34726H425.52892V557.26672H809.712Zm-378.18-.50434V386.11087H615.18938q55.27881,42.99975,107.5639,90.81186,9.07855,8.29728,18.03345,16.727,31.3038,29.419,61.14459,60.30969Zm378.18.50434q-30.02664-31.21739-61.60767-61.01252Q736.702,485.22838,727.888,477.1377q-53.79025-49.412-111.11915-93.98694l-.44653-.34726H425.52892V557.26672H809.712Zm-378.18-.50434V386.11087H615.18938q55.27881,42.99975,107.5639,90.81186,9.07855,8.29728,18.03345,16.727,31.3038,29.419,61.14459,60.30969ZM572.76414,350.0441c-46.28643-33.7103-94.98727-65.67591-144.73815-95.00394l-2.49707-1.47175v99.46885H576.87376Zm-143.92791-.31421V259.36456c47.32852,27.9968,93.67273,58.37488,137.86749,90.36536Zm143.92791.31421c-46.28643-33.7103-94.98727-65.67591-144.73815-95.00394l-2.49707-1.47175v99.46885H576.87376Zm-143.92791-.31421V259.36456c47.32852,27.9968,93.67273,58.37488,137.86749,90.36536Zm378.18,204.73386q-30.02664-31.21739-61.60767-61.01252Q736.702,485.22838,727.888,477.1377q-53.79025-49.412-111.11915-93.98694l-.44653-.34726H425.52892V557.26672H809.712Zm-378.18-.50434V386.11087H615.18938q55.27881,42.99975,107.5639,90.81186,9.07855,8.29728,18.03345,16.727,31.3038,29.419,61.14459,60.30969ZM261.83113,587.033v3.30737H392.45531v47.95673H261.83113v3.30737H395.76265V587.033Zm163.69779,84.33771v33.51184l3.30737-.306V674.678H938.16978v-3.30737Zm512.64086-81.03034V587.033H425.52892v54.57147H938.16978v-3.30737H428.83626V590.34033Zm-308.866-240.6105A1613.79575,1613.79575,0,0,0,428.83626,217.6422v-33.487l-3.30738.30592v33.74622l2.54673,2.80012A1610.4861,1610.4861,0,0,1,627.73247,352.69l.44653.34726H938.16978v-3.30737Zm-236.84851,0H261.83113v3.30737H395.76265V187.22276l-3.30737.30593ZM938.16978,382.8035H665.65166l3.56372,2.927q50.32928,41.41231,98.832,87.84354,6.896,6.59811,13.74219,13.30383,34.08224,33.301,66.83355,68.77655l2.72663,1.61236h86.82v-3.30737H851.55821q-32.39565-35.12421-66.1969-68.21429-6.75906-6.623-13.56817-13.155-47.45271-45.53-96.93085-86.47922H938.16978ZM261.83113,671.37067V674.678H392.45531v33.272l3.30737-.30591V671.37067Zm0-288.56717v3.30737H392.45531V553.95941H261.83113v3.30737H395.76265V382.8035Zm310.933-32.7594c-46.28643-33.7103-94.98727-65.67591-144.73815-95.00394l-2.49707-1.47175v99.46885H576.87376Zm-143.92791-.31421V259.36456c47.32852,27.9968,93.67273,58.37488,137.86749,90.36536Zm378.18,204.73386q-30.02664-31.21739-61.60767-61.01252Q736.702,485.22838,727.888,477.1377q-53.79025-49.412-111.11915-93.98694l-.44653-.34726H425.52892V557.26672H809.712Zm-378.18-.50434V386.11087H615.18938q55.27881,42.99975,107.5639,90.81186,9.07855,8.29728,18.03345,16.727,31.3038,29.419,61.14459,60.30969ZM572.76414,350.0441c-46.28643-33.7103-94.98727-65.67591-144.73815-95.00394l-2.49707-1.47175v99.46885H576.87376Zm-143.92791-.31421V259.36456c47.32852,27.9968,93.67273,58.37488,137.86749,90.36536Zm378.18,204.73386q-30.02664-31.21739-61.60767-61.01252Q736.702,485.22838,727.888,477.1377q-53.79025-49.412-111.11915-93.98694l-.44653-.34726H425.52892V557.26672H809.712Zm-378.18-.50434V386.11087H615.18938q55.27881,42.99975,107.5639,90.81186,9.07855,8.29728,18.03345,16.727,31.3038,29.419,61.14459,60.30969Z"
     transform="translate(-239.4438 -158.73267)"
     fill="#fff"
     id="path1002" />
  <path
     d="m 372.37949,313.01438 c 0,41.88122 -75.83267,135.18 -75.83267,135.18 0,0 -75.83267,-93.29876 -75.83267,-135.18 a 75.83267,75.83267 0 0 1 151.66534,0 z"
     fill="#009cff"
     id="path1004" />
  <path
     d="m 331.21409,309.71731 a 34.66638,34.66638 0 1 1 -34.66638,-34.66638 34.65047,34.65047 0 0 1 34.66638,34.66638 z"
     fill="#ffffff"
     style="isolation:isolate"
     id="path1006" />
  <circle
     cx="296.54681"
     cy="482.48386"
     r="20.441851"
     fill="#009cff"
     id="circle1008" />
  <circle
     cx="489.36398"
     cy="100.27214"
     r="30.22324"
     fill="#ff6584"
     id="circle1010"
     style="fill:#0066ff" />
  <path
     d="M823.58447,352.14173H675.31834a3.02384,3.02384,0,0,1-.55407-.0439l70.12308-121.46324a4.90981,4.90981,0,0,1,8.54664,0l47.06138,81.51127,2.25462,3.90031Z"
     transform="translate(-239.4438 -158.73267)"
     fill="#fff"
     id="path1012" />
  <polygon
     points="584.141 193.409 533.519 193.409 558.369 157.313 560.157 154.713 561.052 153.413 563.306 157.313 584.141 193.409"
     opacity="0.2"
     style="isolation:isolate"
     id="polygon1014" />
  <path
     d="M906.138,352.14173H777.9l24.85-36.09556,1.78829-2.60022,32.38181-47.03945c2.12294-3.08293,7.23007-3.27491,9.726-.58148a5.853,5.853,0,0,1,.46631.58148Z"
     transform="translate(-239.4438 -158.73267)"
     fill="#fff"
     id="path1016" />
  <circle
     cx="676.20989"
     cy="349.33488"
     r="15.2965"
     fill="#fff"
     id="circle1018" />
  <polygon
     points="677.685 395.409 674.552 395.409 675.98 347.031 677.685 395.409"
     fill="#cbcbcb"
     id="polygon1020" />
  <polygon
     points="676.256 356.2 679.62 351.546 676.21 357.352 675.842 356.707 676.256 356.2"
     fill="#cbcbcb"
     id="polygon1022" />
  <polygon
     points="675.888 360.899 672.524 356.246 675.934 362.051 676.302 361.406 675.888 360.899"
     fill="#cbcbcb"
     id="polygon1024" />
  <circle
     cx="632.71557"
     cy="327.36152"
     r="22.59163"
     fill="#fff"
     id="circle1026" />
  <polygon
     points="634.893 395.409 630.266 395.409 632.376 323.959 634.893 395.409"
     fill="#cbcbcb"
     id="polygon1028" />
  <polygon
     points="632.784 337.5 637.751 330.628 632.716 339.202 632.172 338.249 632.784 337.5"
     fill="#cbcbcb"
     id="polygon1030" />
  <polygon
     points="632.24 344.441 627.272 337.569 632.308 346.142 632.852 345.19 632.24 344.441"
     fill="#cbcbcb"
     id="polygon1032" />
  <circle
     cx="108.20989"
     cy="349.33488"
     r="15.2965"
     fill="#fff"
     id="circle1034" />
  <polygon
     points="109.685 395.409 106.552 395.409 107.98 347.031 109.685 395.409"
     fill="#cbcbcb"
     id="polygon1036" />
  <polygon
     points="108.256 356.2 111.62 351.546 108.21 357.352 107.842 356.707 108.256 356.2"
     fill="#cbcbcb"
     id="polygon1038" />
  <polygon
     points="107.888 360.899 104.524 356.246 107.934 362.051 108.302 361.406 107.888 360.899"
     fill="#cbcbcb"
     id="polygon1040" />
  <circle
     cx="64.71557"
     cy="327.36152"
     r="22.59163"
     fill="#fff"
     id="circle1042" />
  <polygon
     points="66.893 395.409 62.266 395.409 64.376 323.959 66.893 395.409"
     fill="#cbcbcb"
     id="polygon1044" />
  <polygon
     points="64.784 337.5 69.751 330.628 64.716 339.202 64.172 338.249 64.784 337.5"
     fill="#cbcbcb"
     id="polygon1046" />
  <polygon
     points="64.24 344.441 59.272 337.569 64.308 346.142 64.852 345.19 64.24 344.441"
     fill="#cbcbcb"
     id="polygon1048" />
  <g
     fill="none"
     fill-rule="evenodd"
     id="g1256"
     transform="matrix(0.06894462,0,0,0.06327447,41.950438,80.146035)">
    <g
       fill-rule="nonzero"
       id="g1244">
      <rect
         fill="#4989f5"
         height="696.14001"
         rx="36.880001"
         width="931"
         x="53.450001"
         y="232.98"
         id="rect1230" />
      <path
         d="M 936.81,227.75 H 100.06 c -25.92,0 -46.09,200.6 -46.09,226.52 L 512.2,929.12 h 424.61 c 26,-0.071 47.059,-21.13 47.13,-47.13 V 274.87 c -0.077,-25.996 -21.134,-47.049 -47.13,-47.12 z"
         fill="url(#a)"
         id="path1232"
         style="fill:url(#a)" />
      <path
         d="m 266.03,349.56 h 266 V 0.44 H 305.86 Z"
         fill="#3c4ba6"
         id="path1234" />
      <path
         d="m 798.03,349.56 h -266 V 0.44 H 758.2 Z m 186.42,-282.94 0.33,1.19 C 984.7,67.39 984.54,67 984.45,66.62 Z"
         fill="#7babf7"
         id="path1236" />
      <path
         d="m 984.78,67.8 -0.33,-1.19 C 976.017,27.993 941.837,0.455 902.31,0.43 H 758.2 L 798,349.56 h 266 z"
         fill="#3f51b5"
         id="path1238" />
      <path
         d="m 79.61,66.62 -0.33,1.19 c 0.08,-0.42 0.24,-0.81 0.33,-1.19 z"
         fill="#7babf7"
         id="path1240" />
      <path
         d="M 79.27,67.8 79.6,66.61 C 88.033,27.993 122.213,0.455 161.74,0.43 H 305.86 L 266,349.56 H 0 Z"
         fill="#7babf7"
         id="path1242" />
    </g>
    <path
       d="m 266.48,349.47 c 0,73.412 -59.513,132.925 -132.925,132.925 C 60.143,482.395 0.63,422.882 0.63,349.47 Z"
       fill="#709be0"
       id="path1246" />
    <path
       d="m 532.33,349.47 c 0,73.412 -59.513,132.925 -132.925,132.925 -73.412,0 -132.925,-59.513 -132.925,-132.925 z"
       fill="#3c4ba6"
       id="path1248" />
    <path
       d="m 798.18,349.47 c 0,73.412 -59.513,132.925 -132.925,132.925 -73.412,0 -132.925,-59.513 -132.925,-132.925 z"
       fill="#709be0"
       id="path1250" />
    <path
       d="m 1064,349.47 c 0,73.412 -59.513,132.925 -132.925,132.925 -73.412,0 -132.925,-59.513 -132.925,-132.925 z"
       fill="#3c4ba6"
       id="path1252" />
    <path
       d="m 931.08,709.6 c -0.47,-6.33 -1.25,-12.11 -2.36,-19.49 h -145 c 0,20.28 0,42.41 -0.08,62.7 h 84 a 73.05,73.05 0 0 1 -30.75,46.89 c 0,0 0,-0.35 -0.06,-0.36 a 88,88 0 0 1 -34,13.27 99.85,99.85 0 0 1 -36.79,-0.16 91.9,91.9 0 0 1 -34.31,-14.87 95.72,95.72 0 0 1 -33.73,-43.1 c -0.52,-1.35 -1,-2.71 -1.49,-4.09 v -0.15 l 0.13,-0.1 A 93,93 0 0 1 696.59,690.3 96.27,96.27 0 0 1 718.9,654 c 23.587,-24.399 58.829,-33.576 91.32,-23.78 a 83,83 0 0 1 33.23,19.56 l 28.34,-28.34 c 5,-5.05 10.19,-9.94 15,-15.16 a 149.78,149.78 0 0 0 -49.64,-30.74 156.08,156.08 0 0 0 -103.83,-0.91 c -1.173,0.4 -2.34,0.817 -3.5,1.25 A 155.18,155.18 0 0 0 646,651 152.61,152.61 0 0 0 632.58,689.78 c -16.052,79.772 32.623,158.294 111.21,179.4 25.69,6.88 53,6.71 78.89,0.83 a 139.88,139.88 0 0 0 63.14,-32.81 c 18.64,-17.15 32,-40 39,-64.27 a 179,179 0 0 0 6.26,-63.33 z"
       fill="#ffffff"
       fill-rule="nonzero"
       id="path1254" />
  </g>
</svg>
