<?xml version="1.0" encoding="UTF-8" standalone="no"?>
<svg
   data-name="Layer 1"
   width="721.11239"
   height="582.53467"
   viewBox="0 0 721.11239 582.53467"
   version="1.1"
   id="svg1050"
   sodipodi:docname="GMB-Local-SEO-JWS-Aruba.svg"
   inkscape:version="1.1.1 (3bf5ae0d25, 2021-09-20)"
   xmlns:inkscape="http://www.inkscape.org/namespaces/inkscape"
   xmlns:sodipodi="http://sodipodi.sourceforge.net/DTD/sodipodi-0.dtd"
   xmlns="http://www.w3.org/2000/svg"
   xmlns:svg="http://www.w3.org/2000/svg">
  <defs
     id="defs1054">
    <linearGradient
       id="a"
       x1="46.869633"
       x2="854.4834"
       y1="666.05511"
       y2="666.05511"
       gradientTransform="scale(1.1514919,0.86843861)"
       gradientUnits="userSpaceOnUse">
      <stop
         offset=".03"
         stop-color="#4079d8"
         id="stop1225" />
      <stop
         offset="1"
         stop-color="#4989f5"
         id="stop1227" />
    </linearGradient>
  </defs>
  <sodipodi:namedview
     id="namedview1052"
     pagecolor="#ffffff"
     bordercolor="#666666"
     borderopacity="1.0"
     inkscape:pageshadow="2"
     inkscape:pageopacity="0.0"
     inkscape:pagecheckerboard="0"
     showgrid="false"
     inkscape:zoom="0.98564212"
     inkscape:cx="570.69396"
     inkscape:cy="363.72228"
     inkscape:window-width="1920"
     inkscape:window-height="1001"
     inkscape:window-x="-9"
     inkscape:window-y="-9"
     inkscape:window-maximized="1"
     inkscape:current-layer="svg1050" />
  <path
     d="M 468.40766,545.4978 468.2707,545.4852 254.22087,526.15501 59.578019,543.73267 a 19.244357,18.708315 0 0 1 -20.94182,-16.89773 q -0.08242,-0.8627 -0.08249,-1.73004 V 75.08081 A 19.158161,18.62452 0 0 1 56.017977,56.45301 L 254.2209,38.553547 l 0.13696,0.01264 214.04979,19.330135 194.64192,-17.577639 a 19.244366,18.708324 0 0 1 20.94195,16.897609 q 0.0824,0.862772 0.0825,1.7302 V 508.97019 a 19.158376,18.624729 0 0 1 -17.46418,18.62812 z"
     fill="#3f3d56"
     id="path1000"
     style="stroke-width:0.882618" />
  <path
     d="M 336.93305,205.04018 C 295.49867,175.70417 251.90297,147.88645 207.36731,122.36406 l -2.23531,-1.28077 v 86.56165 h 135.47988 z m -128.84043,-0.27344 v -78.63942 c 42.36723,24.3639 83.85333,50.80009 123.41531,78.63944 z M 546.62929,382.93408 Q 519.75024,355.7675 491.47975,329.83862 483.68586,322.68278 475.79581,315.64195 427.6442,272.64172 376.3249,233.85087 l -0.39972,-0.30219 H 205.132 V 385.37334 H 549.04247 Z M 208.09262,382.49519 V 236.42688 H 374.911 q 49.48412,37.42005 96.28834,79.028 8.12688,7.22061 16.14307,14.55648 28.02233,25.60156 54.73501,52.48383 z m 338.53667,0.43889 Q 519.75024,355.7675 491.47975,329.83862 483.68586,322.68278 475.79581,315.64195 427.6442,272.64172 376.3249,233.85087 l -0.39972,-0.30219 H 205.132 V 385.37334 H 549.04247 Z M 208.09262,382.49519 V 236.42688 H 374.911 q 49.48412,37.42005 96.28834,79.028 8.12688,7.22061 16.14307,14.55648 28.02233,25.60156 54.73501,52.48383 z M 336.93305,205.04018 C 295.49867,175.70417 251.90297,147.88645 207.36731,122.36406 l -2.23531,-1.28077 v 86.56165 h 135.47988 z m -128.84043,-0.27344 v -78.63942 c 42.36723,24.3639 83.85333,50.80009 123.41531,78.63944 z m 128.84043,0.27344 C 295.49867,175.70417 251.90297,147.88645 207.36731,122.36406 l -2.23531,-1.28077 v 86.56165 h 135.47988 z m -128.84043,-0.27344 v -78.63942 c 42.36723,24.3639 83.85333,50.80009 123.41531,78.63944 z M 546.62929,382.93408 Q 519.75024,355.7675 491.47975,329.83862 483.68586,322.68278 475.79581,315.64195 427.6442,272.64172 376.3249,233.85087 l -0.39972,-0.30219 H 205.132 V 385.37334 H 549.04247 Z M 208.09262,382.49519 V 236.42688 H 374.911 q 49.48412,37.42005 96.28834,79.028 8.12688,7.22061 16.14307,14.55648 28.02233,25.60156 54.73501,52.48383 z M 58.594089,411.27711 v 2.8782 H 175.52538 v 41.7338 H 58.594089 v 2.87821 H 178.48603 V 411.27711 Z M 205.132,484.67105 v 29.16331 l 2.96067,-0.2663 v -26.01888 h 455.94179 v -2.8782 z m 458.90246,-70.51574 v -2.8782 H 205.132 v 47.49021 h 458.90246 v -2.87821 H 208.09264 V 414.15527 Z M 387.54583,204.76672 A 1444.627,1404.3876 0 0 0 208.09264,89.818905 V 60.677218 l -2.96068,0.266224 v 29.367269 l 2.27977,2.436773 A 1441.6643,1401.5075 0 0 1 386.13924,207.34274 l 0.39972,0.3022 h 277.4955 v -2.8782 z m -212.02048,0 H 58.594089 v 2.8782 H 178.48603 V 63.346728 l -2.96067,0.266232 z m 488.50911,28.78196 H 420.08349 l 3.19015,2.54718 q 45.05343,36.0386 88.47177,76.44486 6.17312,5.74193 12.30165,11.57751 30.50951,28.97982 59.82761,59.85202 l 2.44081,1.40314 h 77.71896 v -2.8782 h -77.53235 q -28.99973,-30.56645 -59.25771,-59.36272 -6.05053,-5.7636 -12.14586,-11.448 Q 472.62012,272.0625 428.3286,236.4269 H 664.03446 Z M 58.594089,484.67102 v 2.87816 H 175.52538 v 28.95459 l 2.96067,-0.26622 v -31.56653 z m 0,-251.12234 v 2.8782 H 175.52538 V 382.49519 H 58.594089 v 2.8782 H 178.48603 V 233.54868 Z M 336.93304,205.04018 C 295.49866,175.70417 251.90297,147.88645 207.3673,122.36406 l -2.23531,-1.28077 v 86.56165 h 135.47989 z m -128.84043,-0.27344 v -78.63942 c 42.36723,24.3639 83.85333,50.80009 123.41531,78.63944 z M 546.62928,382.93408 Q 519.75023,355.7675 491.47974,329.83862 483.68586,322.68278 475.79581,315.64195 427.6442,272.64172 376.3249,233.85087 l -0.39972,-0.30219 H 205.132 V 385.37334 H 549.04247 Z M 208.09261,382.49519 V 236.42688 H 374.911 q 49.48412,37.42005 96.28834,79.028 8.12688,7.22061 16.14307,14.55648 28.02233,25.60156 54.73501,52.48383 z M 336.93305,205.04018 C 295.49867,175.70417 251.90297,147.88645 207.36731,122.36406 l -2.23531,-1.28077 v 86.56165 h 135.47988 z m -128.84043,-0.27344 v -78.63942 c 42.36723,24.3639 83.85333,50.80009 123.41531,78.63944 z M 546.62929,382.93408 Q 519.75024,355.7675 491.47975,329.83862 483.68586,322.68278 475.79581,315.64195 427.6442,272.64172 376.3249,233.85087 l -0.39972,-0.30219 H 205.132 V 385.37334 H 549.04247 Z M 208.09262,382.49519 V 236.42688 H 374.911 q 49.48412,37.42005 96.28834,79.028 8.12688,7.22061 16.14307,14.55648 28.02233,25.60156 54.73501,52.48383 z"
     fill="#ffffff"
     id="path1002"
     style="stroke-width:0.882618" />
  <path
     d="m 371.89776,310.9508 c 0,36.44666 -67.88338,117.63888 -67.88338,117.63888 0,0 -67.88339,-81.1922 -67.88339,-117.63888 a 67.883389,65.99253 0 0 1 135.76677,0 z"
     fill="#009cff"
     id="path1004"
     style="stroke-width:0.882618" />
  <path
     d="m 335.04759,308.08156 a 31.032421,30.168028 0 1 1 -31.03242,-30.16802 31.018179,30.154183 0 0 1 31.03242,30.16802 z"
     fill="#ffffff"
     style="isolation:isolate;stroke-width:0.882618"
     id="path1006" />
  <ellipse
     cx="304.01437"
     cy="458.42972"
     fill="#009cff"
     id="circle1008"
     rx="18.299002"
     ry="17.789291"
     style="stroke-width:0.882618" />
  <ellipse
     cx="476.61917"
     cy="125.81425"
     fill="#ff6584"
     id="circle1010"
     style="fill:#0066ff;stroke-width:0.882618"
     rx="27.05504"
     ry="26.301435" />
  <path
     d="m 561.46074,206.86561 h -132.7239 a 2.7068611,2.6314628 0 0 1 -0.49598,-0.0382 l 62.77231,-105.70202 a 4.3951313,4.2727071 0 0 1 7.65073,0 l 42.12809,70.93427 2.01828,3.3942 z"
     fill="#ffffff"
     id="path1012"
     style="stroke-width:0.882618" />
  <polygon
     points="560.157,154.713 561.052,153.413 563.306,157.313 584.141,193.409 533.519,193.409 558.369,157.313 "
     opacity="0.2"
     style="isolation:isolate"
     id="polygon1014"
     transform="matrix(0.8951734,0,0,0.87023878,38.553547,38.553547)" />
  <path
     d="M 635.36046,206.86561 H 520.56522 l 22.24506,-31.41175 1.60083,-2.26281 28.98733,-40.93556 c 1.9004,-2.68289 6.47217,-2.84995 8.70646,-0.50603 a 5.2394499,5.0935076 0 0 1 0.41743,0.50603 z"
     fill="#ffffff"
     id="path1016"
     style="stroke-width:0.882618" />
  <ellipse
     cx="643.87866"
     cy="342.55832"
     fill="#ffffff"
     id="circle1018"
     rx="13.69302"
     ry="13.311607"
     style="stroke-width:0.882618" />
  <polygon
     points="677.685,395.409 674.552,395.409 675.98,347.031 "
     fill="#cbcbcb"
     id="polygon1020"
     transform="matrix(0.8951734,0,0,0.87023878,38.553547,38.553547)" />
  <polygon
     points="675.842,356.707 676.256,356.2 679.62,351.546 676.21,357.352 "
     fill="#cbcbcb"
     id="polygon1022"
     transform="matrix(0.8951734,0,0,0.87023878,38.553547,38.553547)" />
  <polygon
     points="676.302,361.406 675.888,360.899 672.524,356.246 675.934,362.051 "
     fill="#cbcbcb"
     id="polygon1024"
     transform="matrix(0.8951734,0,0,0.87023878,38.553547,38.553547)" />
  <ellipse
     cx="604.94366"
     cy="323.43625"
     fill="#ffffff"
     id="circle1026"
     rx="20.223427"
     ry="19.660114"
     style="stroke-width:0.882618" />
  <polygon
     points="634.893,395.409 630.266,395.409 632.376,323.959 "
     fill="#cbcbcb"
     id="polygon1028"
     transform="matrix(0.8951734,0,0,0.87023878,38.553547,38.553547)" />
  <polygon
     points="632.172,338.249 632.784,337.5 637.751,330.628 632.716,339.202 "
     fill="#cbcbcb"
     id="polygon1030"
     transform="matrix(0.8951734,0,0,0.87023878,38.553547,38.553547)" />
  <polygon
     points="632.852,345.19 632.24,344.441 627.272,337.569 632.308,346.142 "
     fill="#cbcbcb"
     id="polygon1032"
     transform="matrix(0.8951734,0,0,0.87023878,38.553547,38.553547)" />
  <ellipse
     cx="135.42017"
     cy="342.55832"
     fill="#ffffff"
     id="circle1034"
     rx="13.69302"
     ry="13.311607"
     style="stroke-width:0.882618" />
  <polygon
     points="109.685,395.409 106.552,395.409 107.98,347.031 "
     fill="#cbcbcb"
     id="polygon1036"
     transform="matrix(0.8951734,0,0,0.87023878,38.553547,38.553547)" />
  <polygon
     points="107.842,356.707 108.256,356.2 111.62,351.546 108.21,357.352 "
     fill="#cbcbcb"
     id="polygon1038"
     transform="matrix(0.8951734,0,0,0.87023878,38.553547,38.553547)" />
  <polygon
     points="108.302,361.406 107.888,360.899 104.524,356.246 107.934,362.051 "
     fill="#cbcbcb"
     id="polygon1040"
     transform="matrix(0.8951734,0,0,0.87023878,38.553547,38.553547)" />
  <ellipse
     cx="96.485207"
     cy="323.43625"
     fill="#ffffff"
     id="circle1042"
     rx="20.223427"
     ry="19.660114"
     style="stroke-width:0.882618" />
  <polygon
     points="66.893,395.409 62.266,395.409 64.376,323.959 "
     fill="#cbcbcb"
     id="polygon1044"
     transform="matrix(0.8951734,0,0,0.87023878,38.553547,38.553547)" />
  <polygon
     points="64.172,338.249 64.784,337.5 69.751,330.628 64.716,339.202 "
     fill="#cbcbcb"
     id="polygon1046"
     transform="matrix(0.8951734,0,0,0.87023878,38.553547,38.553547)" />
  <polygon
     points="64.852,345.19 64.24,344.441 59.272,337.569 64.308,346.142 "
     fill="#cbcbcb"
     id="polygon1048"
     transform="matrix(0.8951734,0,0,0.87023878,38.553547,38.553547)" />
  <g
     fill="none"
     fill-rule="evenodd"
     id="g1256"
     transform="matrix(0.06171739,0,0,0.0550639,76.106463,108.29974)">
    <g
       fill-rule="nonzero"
       id="g1244">
      <rect
         fill="#4989f5"
         height="696.14001"
         rx="36.880001"
         width="931"
         x="53.450001"
         y="232.98"
         id="rect1230" />
      <path
         d="M 936.81,227.75 H 100.06 c -25.92,0 -46.09,200.6 -46.09,226.52 L 512.2,929.12 h 424.61 c 26,-0.071 47.059,-21.13 47.13,-47.13 V 274.87 c -0.077,-25.996 -21.134,-47.049 -47.13,-47.12 z"
         fill="url(#a)"
         id="path1232"
         style="fill:url(#a)" />
      <path
         d="m 266.03,349.56 h 266 V 0.44 H 305.86 Z"
         fill="#3c4ba6"
         id="path1234" />
      <path
         d="m 798.03,349.56 h -266 V 0.44 H 758.2 Z m 186.42,-282.94 0.33,1.19 C 984.7,67.39 984.54,67 984.45,66.62 Z"
         fill="#7babf7"
         id="path1236" />
      <path
         d="m 984.78,67.8 -0.33,-1.19 C 976.017,27.993 941.837,0.455 902.31,0.43 H 758.2 L 798,349.56 h 266 z"
         fill="#3f51b5"
         id="path1238" />
      <path
         d="m 79.61,66.62 -0.33,1.19 c 0.08,-0.42 0.24,-0.81 0.33,-1.19 z"
         fill="#7babf7"
         id="path1240" />
      <path
         d="M 79.27,67.8 79.6,66.61 C 88.033,27.993 122.213,0.455 161.74,0.43 H 305.86 L 266,349.56 H 0 Z"
         fill="#7babf7"
         id="path1242" />
    </g>
    <path
       d="m 266.48,349.47 c 0,73.412 -59.513,132.925 -132.925,132.925 C 60.143,482.395 0.63,422.882 0.63,349.47 Z"
       fill="#709be0"
       id="path1246" />
    <path
       d="m 532.33,349.47 c 0,73.412 -59.513,132.925 -132.925,132.925 -73.412,0 -132.925,-59.513 -132.925,-132.925 z"
       fill="#3c4ba6"
       id="path1248" />
    <path
       d="m 798.18,349.47 c 0,73.412 -59.513,132.925 -132.925,132.925 -73.412,0 -132.925,-59.513 -132.925,-132.925 z"
       fill="#709be0"
       id="path1250" />
    <path
       d="m 1064,349.47 c 0,73.412 -59.513,132.925 -132.925,132.925 -73.412,0 -132.925,-59.513 -132.925,-132.925 z"
       fill="#3c4ba6"
       id="path1252" />
    <path
       d="m 931.08,709.6 c -0.47,-6.33 -1.25,-12.11 -2.36,-19.49 h -145 c 0,20.28 0,42.41 -0.08,62.7 h 84 a 73.05,73.05 0 0 1 -30.75,46.89 c 0,0 0,-0.35 -0.06,-0.36 a 88,88 0 0 1 -34,13.27 99.85,99.85 0 0 1 -36.79,-0.16 91.9,91.9 0 0 1 -34.31,-14.87 95.72,95.72 0 0 1 -33.73,-43.1 c -0.52,-1.35 -1,-2.71 -1.49,-4.09 v -0.15 l 0.13,-0.1 A 93,93 0 0 1 696.59,690.3 96.27,96.27 0 0 1 718.9,654 c 23.587,-24.399 58.829,-33.576 91.32,-23.78 a 83,83 0 0 1 33.23,19.56 l 28.34,-28.34 c 5,-5.05 10.19,-9.94 15,-15.16 a 149.78,149.78 0 0 0 -49.64,-30.74 156.08,156.08 0 0 0 -103.83,-0.91 c -1.173,0.4 -2.34,0.817 -3.5,1.25 A 155.18,155.18 0 0 0 646,651 152.61,152.61 0 0 0 632.58,689.78 c -16.052,79.772 32.623,158.294 111.21,179.4 25.69,6.88 53,6.71 78.89,0.83 a 139.88,139.88 0 0 0 63.14,-32.81 c 18.64,-17.15 32,-40 39,-64.27 a 179,179 0 0 0 6.26,-63.33 z"
       fill="#ffffff"
       fill-rule="nonzero"
       id="path1254" />
  </g>
</svg>
